<?xml version="1.0" standalone="no"?>
<!DOCTYPE svg PUBLIC "-//W3C//DTD SVG 20010904//EN"
 "http://www.w3.org/TR/2001/REC-SVG-20010904/DTD/svg10.dtd">
<svg version="1.0" xmlns="http://www.w3.org/2000/svg"
 width="362.000000pt" height="175.000000pt" viewBox="0 0 362.000000 175.000000"
 preserveAspectRatio="xMidYMid meet">

<g transform="translate(0.000000,175.000000) scale(0.100000,-0.100000)"
fill="#000000" stroke="none">
<path d="M1397 1459 c-30 -17 -39 -56 -22 -89 18 -35 57 -48 97 -32 25 9 34 7
76 -25 63 -47 122 -104 122 -118 0 -6 -16 -27 -36 -46 -19 -18 -47 -55 -61
-80 l-26 -45 -121 -17 c-292 -40 -443 -115 -476 -236 -39 -148 170 -300 413
-301 37 0 83 7 103 15 34 14 35 14 46 -13 63 -158 127 -242 214 -282 39 -18
53 -31 66 -61 9 -22 21 -39 27 -39 6 0 19 17 30 39 15 28 34 45 75 65 31 15
74 48 97 74 39 44 109 171 109 198 0 9 22 11 78 7 174 -12 340 55 423 169 37
52 39 107 6 169 -47 88 -186 154 -390 185 -56 9 -112 18 -124 20 -12 2 -32 22
-46 46 -14 24 -43 64 -66 89 l-40 46 62 60 c85 82 110 97 136 84 48 -26 111 7
111 58 0 31 -43 71 -78 71 -35 0 -72 -36 -72 -71 0 -18 -14 -33 -51 -58 -28
-19 -69 -56 -92 -82 l-42 -48 -40 14 c-53 19 -117 19 -162 0 l-37 -16 -60 59
c-34 32 -78 71 -98 86 -26 18 -38 35 -38 51 0 46 -69 79 -113 54z m247 -505
c-32 -19 -83 -53 -111 -75 l-53 -40 -82 21 c-91 22 -188 58 -188 70 0 8 70 24
170 40 103 16 119 17 224 19 l100 1 -60 -36z m536 21 c131 -17 210 -34 210
-45 0 -13 -93 -49 -182 -70 l-83 -20 -40 30 c-22 17 -74 51 -115 75 l-75 45
90 0 c50 0 137 -7 195 -15z m-491 -63 c-98 -108 -202 -210 -264 -262 -72 -59
-162 -120 -178 -120 -14 0 54 89 128 168 39 41 104 101 147 133 86 66 190 131
197 123 2 -2 -11 -21 -30 -42z m266 9 c35 -22 91 -60 122 -84 105 -81 295
-288 279 -304 -19 -20 -265 183 -380 313 -120 136 -120 135 -21 75z m-23 -72
l76 -86 -9 -44 c-4 -24 -8 -47 -9 -51 -1 -22 -21 -2 -48 45 -36 64 -108 247
-90 227 3 -3 39 -44 80 -91z m-201 20 c-22 -65 -86 -195 -101 -204 -13 -8 -30
36 -30 76 0 24 16 48 72 109 40 43 74 77 76 76 1 -2 -6 -27 -17 -57z m-512 17
l54 -28 -69 -40 c-38 -22 -104 -58 -146 -79 l-78 -39 0 35 c0 42 18 81 52 111
24 22 119 75 128 71 3 -1 29 -15 59 -31z m1297 -2 c23 -13 55 -39 72 -58 30
-35 52 -100 37 -114 -8 -9 -277 129 -282 144 -2 7 9 16 24 22 15 5 37 17 48
26 23 17 43 14 101 -20z m-1123 -55 c26 -6 47 -14 47 -18 0 -3 -34 -40 -75
-81 -42 -41 -87 -92 -102 -112 -14 -21 -29 -35 -34 -32 -5 3 -9 24 -9 48 0 24
-7 65 -15 92 -8 27 -11 50 -7 52 4 1 30 18 57 36 30 21 58 33 70 30 11 -2 41
-9 68 -15z m956 -16 c31 -20 57 -37 59 -38 1 -1 -4 -28 -13 -61 -8 -32 -15
-78 -15 -102 l0 -43 -59 73 c-33 40 -82 96 -111 123 l-51 50 63 17 c35 9 65
17 67 17 2 1 29 -15 60 -36z m261 -145 c0 -15 -73 -79 -123 -108 -79 -45 -81
-44 -74 53 3 45 11 96 17 114 l12 32 84 -42 c46 -23 84 -45 84 -49z m-1435 65
c10 -24 19 -203 11 -203 -36 0 -186 108 -186 134 0 11 134 84 156 85 7 1 15
-7 19 -16z m733 -28 c12 -25 22 -47 22 -48 0 -3 -260 -6 -260 -3 0 2 12 24 26
50 l26 46 82 0 82 0 22 -45z m-350 -128 c-40 -37 -85 -61 -135 -73 -19 -5 -23
-2 -23 15 0 44 34 98 98 155 l67 58 17 -58 18 -59 -42 -38z m553 91 c57 -50
72 -70 84 -111 18 -62 19 -57 -2 -57 -32 0 -117 47 -151 83 l-34 35 13 56 c8
31 15 56 17 56 2 0 35 -28 73 -62z m-742 -136 c-9 -28 -16 -32 -45 -32 -19 0
-34 3 -34 8 0 7 83 63 87 58 2 -1 -2 -17 -8 -34z m941 -23 c0 -5 -15 -9 -34
-9 -26 0 -35 5 -40 23 -12 44 -7 48 34 21 22 -15 40 -31 40 -35z m-280 -69
c30 -6 55 -12 57 -14 3 -2 -5 -23 -17 -46 -18 -35 -25 -41 -43 -36 -78 21
-326 15 -409 -10 -12 -4 -23 6 -38 36 -12 23 -19 45 -15 48 26 26 360 42 465
22z"/>
</g>
</svg>
