<svg width="168" height="136" viewBox="0 0 168 136" fill="none" xmlns="http://www.w3.org/2000/svg">
<g clip-path="url(#clip0_438_119)">
<path d="M164.155 61.8017C160.356 57.0152 153.994 53.4669 146.486 50.8396H146.455C136.309 47.2912 124.081 45.434 113.211 44.4676C109.879 37.2199 105.416 31.3463 100.215 27.511C106.306 19.5688 113.302 14.3444 118.141 11.3698C119.076 12.3211 120.282 13.0458 121.684 13.4384C125.634 14.5105 129.63 12.4268 130.61 8.80293C131.59 5.17908 129.192 1.35894 125.242 0.301982C121.292 -0.770073 117.297 1.31364 116.317 4.93749C115.955 6.28133 116.061 7.65537 116.528 8.89352C111.432 12.0191 104.12 17.4851 97.7575 25.8954C94.0939 23.7362 90.1287 22.5585 85.9826 22.5585C81.8365 22.5585 78.0371 23.6909 74.4338 25.7595C68.4936 18.2098 60.8497 12.5778 55.5276 9.21061C55.5728 9.07472 55.618 8.95392 55.6633 8.81803C56.6433 5.19418 54.2461 1.37404 50.296 0.317082C46.3459 -0.754973 42.3505 1.32874 41.3705 4.95259C40.3905 8.57644 42.7877 12.3966 46.7379 13.4535C49.4517 14.1934 52.1956 13.4384 53.9596 11.702C59.0405 14.9333 66.3376 20.3086 71.9763 27.3751C66.7598 31.15 62.2669 36.9481 58.9048 44.1505C39.3503 45.5397 13.4334 49.7071 3.84455 61.8168C0.165832 66.4372 -0.889539 71.8881 0.738748 78.0033L0.844285 78.2902C1.25136 79.0905 11.1718 97.9647 42.0641 98.2063C42.1394 98.2063 42.2148 98.2063 42.2751 98.2063C46.9489 98.2063 51.1553 97.0436 54.9396 95.0807C59.3571 111.977 69.2022 124.479 81.0826 127.197L83.3894 132.029L85.0478 135.517C85.3494 136.151 86.254 136.151 86.5555 135.517L88.2139 132.029L90.4754 127.273C102.16 124.811 111.93 112.913 116.573 96.6208C119.393 97.6325 122.423 98.1912 125.68 98.1912C125.755 98.1912 125.83 98.1912 125.891 98.1912C132.313 98.1459 137.816 97.2852 142.535 95.9565L143.259 95.7602C160.673 90.5811 166.809 78.9093 167.126 78.2902L167.231 78.0033C168.859 71.8881 167.819 66.4372 164.14 61.7866L164.155 61.8017ZM112.382 47.3818C113.075 47.4422 113.769 47.5026 114.478 47.563C114.493 47.563 114.523 47.563 114.538 47.563C123.931 48.4539 134.183 50.0242 142.973 52.7421C137.907 56.381 127.534 59.1744 118.292 61.092C117.644 61.2279 117.01 61.3487 116.392 61.4695C116.015 61.545 115.639 61.6205 115.262 61.696C105.914 54.1463 97.2901 49.2088 91.8173 46.4305C96.7926 46.4758 104.18 46.6721 112.382 47.3818ZM92.164 70.2574C93.7923 73.7453 95.7071 77.2635 97.9083 80.5702C87.4752 79.4982 77.7959 80.0719 69.5339 81.3403C71.8858 77.9278 73.9061 74.2738 75.6249 70.6348C80.7962 70.1668 86.3293 69.9856 92.164 70.2574ZM88.3044 51.1265C93.6114 57.6041 98.8581 63.523 104.014 68.838C103.969 69.7591 103.894 70.6197 103.818 71.42C103.336 76.1763 102.356 79.0452 101.602 80.6004C99.3255 77.4145 97.3354 73.9567 95.6317 70.4989C92.0887 63.3267 89.7216 56.1092 88.3044 51.1416V51.1265ZM63.9555 68.838C69.1117 63.523 74.3584 57.6192 79.6654 51.1265C78.2181 56.2149 75.7606 63.674 72.0818 71.0123C70.4385 74.304 68.5388 77.5654 66.3678 80.5853C65.6591 79.1207 64.7545 76.4934 64.2419 72.2203C64.1213 71.1935 64.0309 70.0611 63.9555 68.838ZM57.5629 47.2308C57.5629 47.2308 57.6082 47.2308 57.6233 47.2308C58.3168 47.1704 59.0103 47.1251 59.7038 47.0798C66.2471 46.6268 72.0366 46.4758 76.1676 46.4457C71.3431 48.8917 64.0761 53.029 56.0251 59.1442C55.2562 59.7331 54.4873 60.322 53.7033 60.941C53.3867 61.1977 53.055 61.4544 52.7384 61.7111C42.833 59.8237 30.651 56.8038 25.0123 52.7572C35.1288 49.6316 47.1298 48.0311 57.578 47.2308H57.5629ZM6.12114 63.6136C9.43802 59.4311 15.0315 56.2451 21.7105 53.8443C22.8262 54.9315 25.2987 57.0605 32.4903 59.5821C28.4196 62.7681 15.6044 69.5779 3.18118 75.5119C2.39719 71.0123 3.34702 67.1016 6.10606 63.6136H6.12114ZM24.4092 92.544C12.2423 88.5276 6.25683 81.2044 4.25163 78.2449C8.26204 76.3273 15.0013 73.0507 21.3034 69.6685C24.4394 74.5607 24.6957 88.0595 24.4092 92.5289V92.544ZM23.8514 68.2944C29.1132 65.3954 33.6965 62.5567 35.5961 60.6089C39.2749 61.7413 43.9336 62.9191 49.8286 64.1119C42.245 70.5895 34.3749 78.7432 27.4547 88.8145C27.4547 82.4727 26.6556 72.9601 23.8514 68.2944ZM53.055 65.1991C53.055 65.1236 53.0701 65.033 53.0852 64.9575C53.0852 65.0481 53.0701 65.1387 53.055 65.2142C53.7938 64.5951 54.5325 64.0062 55.2562 63.4173C64.257 56.2451 72.5191 51.5492 77.6904 48.9521C69.7449 58.6761 61.9654 67.0865 54.4119 74.1379C54.2461 74.2889 54.0802 74.4399 53.9144 74.5909C53.4319 75.0439 52.9495 75.4817 52.4519 75.9196C50.0397 78.109 47.6425 80.1625 45.2905 82.05C36.3198 89.2524 30.3042 92.2269 28.0276 93.1933C35.6112 81.4762 44.5668 72.2505 53.0399 65.1991H53.055ZM40.9032 95.2468C37.7672 95.1713 34.8574 94.8844 32.1737 94.4465C34.6915 93.1178 38.2949 90.9737 42.8782 87.5914C41.9585 90.5207 41.2499 93.601 40.9032 95.2468ZM55.995 91.0039C55.4371 91.3663 54.8642 91.7287 54.2913 92.0457C54.2762 92.0457 54.2611 92.0608 54.2461 92.0759C51.1252 93.8426 47.6726 94.9599 43.9034 95.2166C44.5367 92.3779 45.8785 86.912 47.3711 84.1186C49.0898 82.7294 50.8387 81.2497 52.5876 79.7096C53.2058 79.166 53.8239 78.6073 54.4571 78.0486C56.1759 76.4934 57.9097 74.8476 59.6586 73.1413C60.1863 72.628 60.714 72.0995 61.2567 71.571C61.302 71.9787 61.3321 72.3864 61.3774 72.7638C61.9804 77.656 63.081 80.6155 63.9706 82.3066C64.1364 82.6237 64.2872 82.8804 64.4379 83.122C61.9352 86.2023 59.1309 88.9202 55.995 91.0039ZM108.281 111.011C91.3197 107.855 75.8209 109.425 64.3022 111.932C62.5232 109.229 60.9401 106.194 59.5832 102.902C72.896 99.6709 91.8173 97.406 112.789 101.936C111.507 105.243 109.985 108.293 108.281 111.026V111.011ZM117.357 93.752C117.357 93.752 117.312 93.752 117.297 93.7369C116.709 93.5104 116.121 93.2688 115.548 92.997C110.935 90.8378 106.954 87.3196 103.562 83.122C103.833 82.6992 104.135 82.1557 104.452 81.4309C105.311 79.5284 106.246 76.4934 106.713 71.8579C106.713 71.7673 106.728 71.6616 106.743 71.571C106.864 71.6918 106.984 71.8126 107.105 71.9334C110.558 75.3609 113.965 78.5016 117.327 81.3705C117.93 81.8839 118.533 82.3972 119.136 82.8955C119.136 82.8955 119.136 82.8955 119.151 82.8955C119.649 83.3032 120.131 83.7109 120.629 84.1035C122.122 86.8969 123.463 92.3628 124.097 95.2015C121.714 95.0354 119.468 94.5371 117.357 93.7369V93.752ZM127.097 95.2468C126.735 93.5859 126.026 90.5056 125.122 87.5914C129.705 90.9737 133.308 93.1178 135.826 94.4465C133.143 94.8995 130.233 95.1713 127.097 95.2468ZM122.694 82.0349C121.609 81.1591 120.508 80.2531 119.408 79.3019C118.79 78.7734 118.156 78.2298 117.538 77.6862C115.85 76.2065 114.161 74.6664 112.457 73.0356C105.266 66.2107 97.863 58.1477 90.3096 48.9068C96.3252 51.9418 106.502 57.7853 117.176 67.0714C117.885 67.6754 118.578 68.3095 119.287 68.9437C126.418 75.4213 133.655 83.424 139.942 93.148C137.666 92.1665 131.665 89.2071 122.679 82.0047L122.694 82.0349ZM140.53 88.8145C133.821 79.0452 126.207 71.0878 118.85 64.7159C118.624 64.5196 118.382 64.3082 118.156 64.1119C118.352 64.0666 118.548 64.0364 118.744 63.9911C124.353 62.8436 128.816 61.696 132.374 60.6089C134.273 62.5567 138.857 65.3954 144.118 68.2944C141.314 72.9601 140.515 82.4727 140.515 88.8145H140.53ZM143.576 92.5591C143.289 88.0897 143.546 74.5758 146.682 69.6987C152.969 73.0658 159.723 76.3575 163.733 78.2751C161.728 81.2346 155.743 88.5578 143.576 92.5742V92.5591ZM164.789 75.527C152.365 69.593 139.535 62.7681 135.479 59.5972C142.686 57.0756 145.159 54.9466 146.259 53.8594C152.938 56.2602 158.532 59.4311 161.849 63.6287C164.608 67.1167 165.573 71.0274 164.774 75.527H164.789Z" fill="black"/>
<path d="M59.5833 102.902C60.9402 106.209 62.5232 109.229 64.3023 111.932C75.8058 109.44 91.3047 107.855 108.281 111.011C109.985 108.278 111.508 105.227 112.789 101.921C91.8173 97.3909 72.896 99.6558 59.5833 102.887V102.902Z" fill="#F5C330"/>
<path d="M75.6399 70.6197C73.9212 74.2587 71.9009 77.9127 69.549 81.3252C77.811 80.0568 87.4903 79.4831 97.9233 80.5551C95.7221 77.2484 93.8074 73.7302 92.1791 70.2423C86.3595 69.9705 80.8113 70.1517 75.6399 70.6197Z" fill="#F5C330"/>
</g>
<defs>
<clipPath id="clip0_438_119">
<rect width="168" height="136" fill="white"/>
</clipPath>
</defs>
</svg>
